<svg width="890" height="296" viewBox="0 0 890 296" fill="none" xmlns="http://www.w3.org/2000/svg">
<path d="M113.989 192.266C104.089 195.666 94.1889 199.166 84.1889 202.266C75.2889 205.066 66.0889 206.566 56.6889 206.066C50.3889 205.766 44.2889 204.266 39.4889 199.966C32.6889 193.766 31.6889 186.066 34.3889 177.566C36.8889 169.566 41.7889 162.866 47.0889 156.666C55.4889 146.966 65.0889 138.666 75.2889 130.866C76.1889 130.166 77.0889 128.666 77.0889 127.466C77.4889 115.566 89.2889 107.266 100.589 111.066C102.889 111.866 104.489 111.566 106.489 110.366C124.889 99.9661 143.789 90.7661 164.289 84.9661C173.889 82.2661 183.589 80.4661 193.589 80.8661C199.889 81.1661 205.889 82.5661 210.789 86.8661C217.889 92.9661 219.189 102.466 214.789 112.466C210.689 121.666 204.389 129.266 197.289 136.566C192.489 132.566 187.689 128.566 183.089 124.766C186.989 119.966 190.889 115.166 194.589 110.266C195.989 108.366 196.889 106.066 197.789 103.866C198.889 101.266 198.389 100.166 195.389 100.066C190.089 99.9661 184.689 99.8661 179.589 100.866C160.189 104.266 142.589 112.566 125.289 121.466C121.589 123.366 117.989 125.366 114.389 127.566C113.689 127.966 112.989 128.966 112.889 129.666C111.389 140.966 101.089 147.966 90.0889 145.166C89.1889 144.966 87.7889 145.166 87.0889 145.666C75.7889 154.466 64.9889 163.766 56.4889 175.366C54.7889 177.666 53.5889 180.266 52.3889 182.766C51.4889 184.666 51.9889 186.066 54.4889 186.466C60.5889 187.366 66.5889 186.866 72.3889 185.466C78.5889 183.966 84.6889 182.166 90.6889 180.266C92.3889 179.766 93.6889 179.866 95.1889 180.666C101.289 184.266 107.389 187.766 113.589 191.266C113.789 191.766 113.889 192.066 113.989 192.266Z" fill="black"/>
<path d="M135.889 126.666C142.289 123.866 148.789 121.066 155.389 118.266C155.889 118.066 156.789 118.166 157.289 118.466C175.289 130.166 192.289 142.866 205.889 159.666C211.189 166.166 215.589 173.166 217.089 181.666C218.689 190.766 214.089 199.766 205.589 203.266C199.489 205.766 193.089 206.366 186.589 205.766C182.489 205.366 178.389 204.566 174.289 204.066C173.389 203.966 172.289 204.266 171.589 204.766C161.289 212.766 148.789 206.966 144.189 196.666C143.689 195.566 142.589 194.366 141.489 193.866C121.789 185.466 102.989 175.166 85.2888 163.066C84.5888 162.566 83.8888 162.066 82.9888 161.366C85.4888 159.266 87.6888 157.366 90.0888 155.566C90.5888 155.166 91.3888 155.266 92.0888 155.266C95.7888 154.966 99.4888 154.866 103.089 154.266C104.689 153.966 105.889 153.966 107.189 154.866C119.789 162.866 133.089 169.766 146.789 175.566C148.489 176.266 149.689 176.466 151.389 175.266C160.189 169.066 173.489 173.366 177.489 183.566C178.089 185.066 178.789 185.966 180.389 186.066C185.789 186.166 191.089 186.366 196.489 186.466C198.189 186.466 198.789 185.266 198.289 183.966C196.889 180.566 195.689 176.966 193.589 174.066C187.089 165.066 178.789 157.866 169.989 151.266C158.789 142.866 147.389 134.966 135.889 126.666Z" fill="black"/>
<path d="M114.489 94.9661C110.289 97.2661 106.989 99.1661 103.489 100.966C102.689 101.366 101.589 101.266 100.689 101.066C94.7888 99.9661 89.0888 100.466 83.5888 103.066C82.7888 103.466 81.5888 103.366 80.5888 103.166C74.2888 102.066 67.8888 100.766 61.5888 99.7661C59.3888 99.4661 56.9888 99.8661 54.6888 100.066C52.0888 100.366 51.5888 101.366 52.4888 103.966C54.6888 109.866 58.6888 114.666 62.6888 119.366C64.1888 121.066 65.8888 122.666 67.5888 124.566C65.0888 126.566 62.5888 128.566 60.1888 130.566C57.7888 132.566 55.4888 134.566 53.0888 136.666C45.0888 128.366 37.6888 119.766 34.1888 108.666C30.0888 95.1661 37.9888 83.2661 52.1888 81.4661C65.4888 79.7661 78.2888 82.5661 90.7888 86.5661C98.5888 88.9661 106.089 91.9661 114.489 94.9661Z" fill="black"/>
<path d="M155.389 77.6661C149.389 79.8661 143.589 81.9661 138.089 83.9661C135.789 78.1661 133.589 72.2661 131.089 66.5661C130.089 64.2661 128.289 62.2661 126.789 60.2661C125.789 58.8661 124.789 58.9661 123.589 60.2661C119.689 64.5661 117.589 69.7661 115.589 75.0661C114.489 78.0661 113.689 81.0661 112.689 84.1661C106.789 81.9661 100.989 79.8661 94.9888 77.6661C98.3888 66.4661 101.889 55.3661 110.289 46.8661C119.889 37.0661 133.089 37.8661 141.689 48.5661C147.689 55.7661 152.889 66.7661 155.389 77.6661Z" fill="black"/>
<path d="M112.689 202.766C115.689 211.866 117.889 221.066 125.189 228.266C132.189 221.766 134.389 213.166 137.089 204.966C139.289 207.266 141.389 209.866 143.989 211.866C146.589 213.866 149.689 215.266 152.889 217.166C150.789 223.666 148.089 230.366 143.389 236.066C140.889 239.166 137.889 242.166 134.489 244.266C127.489 248.666 118.389 247.366 112.089 241.866C105.789 236.366 102.189 229.266 99.089 221.766C97.489 217.666 96.189 213.466 94.689 209.266C100.989 207.066 106.689 204.966 112.689 202.766Z" fill="black"/>
<path d="M361.492 174.266C358.892 174.266 356.792 174.266 354.392 174.266C354.392 173.166 354.392 172.366 354.392 171.466C354.392 160.666 354.492 149.766 354.392 138.966C354.392 135.866 354.192 132.566 353.492 129.566C351.092 119.066 340.992 114.466 331.392 119.566C323.892 123.566 320.592 130.466 320.092 138.466C319.492 149.366 319.792 160.266 319.692 171.166C319.692 172.166 319.692 173.166 319.692 174.266C317.192 174.266 314.992 174.266 312.492 174.266C312.492 153.966 312.492 133.866 312.492 113.366C314.092 113.366 315.892 113.166 317.592 113.466C318.192 113.566 318.892 114.766 318.992 115.566C319.192 118.566 319.092 121.666 319.392 124.866C324.192 116.766 330.892 112.066 340.292 111.866C350.092 111.766 356.492 116.666 359.592 126.366C360.192 125.266 360.692 124.666 360.992 123.966C367.092 112.766 381.092 108.366 392.492 114.066C399.892 117.766 403.592 124.266 403.892 131.966C404.392 145.966 404.092 159.966 404.092 174.166C401.992 174.166 399.792 174.166 397.292 174.166C397.292 173.166 397.292 172.266 397.292 171.366C397.292 160.566 397.392 149.666 397.192 138.866C397.092 135.566 396.692 132.166 395.792 129.066C393.992 122.866 390.092 118.766 383.492 117.866C376.592 116.966 370.792 119.066 366.692 124.866C362.892 130.266 361.892 136.466 361.792 142.866C361.692 152.366 361.792 161.866 361.792 171.366C361.492 172.266 361.492 173.166 361.492 174.266Z" fill="black"/>
<path d="M435.092 113.266C435.092 117.366 435.092 121.166 435.092 125.466C435.792 124.666 436.192 124.366 436.392 124.066C442.492 114.766 451.392 111.266 462.092 111.866C481.992 113.066 492.592 129.766 490.692 147.666C489.392 159.866 483.592 169.066 471.992 173.866C459.492 178.966 443.492 175.666 436.192 163.666C435.992 163.366 435.992 163.066 435.892 162.666C435.692 162.766 435.392 162.966 435.192 163.066C435.192 177.166 435.192 191.266 435.192 205.566C432.692 205.566 430.592 205.566 428.092 205.566C428.092 204.366 428.092 203.366 428.092 202.266C428.092 173.666 428.092 145.166 428.092 116.566C428.092 113.166 428.092 113.166 431.392 113.166C432.492 113.266 433.692 113.266 435.092 113.266ZM434.092 143.966C434.692 147.066 435.092 150.166 435.992 153.166C439.092 163.166 447.792 169.566 458.492 169.966C468.192 170.366 477.092 164.966 480.892 156.166C483.292 150.666 483.692 144.966 482.992 139.066C481.292 123.966 466.992 114.366 452.492 118.566C441.492 121.666 434.492 131.566 434.092 143.966Z" fill="black"/>
<path d="M548.892 137.366C550.192 127.166 545.892 119.866 537.292 118.266C529.392 116.766 522.092 118.366 515.592 123.366C514.992 123.866 514.392 124.266 513.692 124.866C512.392 123.366 511.192 121.866 509.892 120.366C512.592 117.366 515.792 115.566 519.392 114.266C526.092 111.766 532.992 111.166 539.992 112.766C549.492 114.966 555.692 122.366 555.892 132.266C556.092 139.866 555.892 147.466 555.992 154.966C556.092 161.366 556.292 167.766 556.492 174.466C555.092 174.466 553.392 174.566 551.792 174.366C551.292 174.266 550.492 173.466 550.392 172.866C549.992 169.966 549.692 166.966 549.292 163.566C548.292 164.866 547.592 165.766 546.992 166.766C539.392 177.466 524.092 178.666 514.592 173.166C508.692 169.766 505.792 164.466 505.892 157.666C505.992 150.766 508.992 145.366 515.192 142.566C519.692 140.466 524.792 139.166 529.692 138.466C535.392 137.666 541.192 137.866 546.892 137.666C547.592 137.466 548.192 137.366 548.892 137.366ZM548.992 142.766C542.692 143.166 536.592 143.466 530.592 144.066C526.292 144.466 522.092 145.666 518.392 148.166C510.892 153.466 511.792 164.566 520.092 168.466C528.992 172.566 542.892 170.366 547.592 157.266C549.192 152.766 549.292 148.166 548.992 142.766Z" fill="black"/>
<path d="M624.391 162.466C625.891 163.866 627.191 165.066 628.691 166.466C625.091 170.666 620.791 173.266 615.791 174.866C603.291 178.766 588.991 174.466 581.491 164.266C576.091 156.866 574.391 148.366 575.491 139.366C578.491 114.566 603.291 106.666 620.191 114.766C623.191 116.166 625.691 118.566 628.791 120.866C626.791 122.766 625.391 124.066 623.791 125.566C620.491 122.066 616.791 119.666 612.191 118.566C598.691 115.266 585.291 124.166 583.091 137.866C581.791 145.966 582.691 153.666 587.691 160.466C595.391 171.066 611.091 172.866 621.791 164.666C622.491 163.966 623.391 163.366 624.391 162.466Z" fill="black"/>
<path d="M645.892 113.366C645.892 107.366 645.892 101.866 645.892 96.066C648.292 96.066 650.492 96.066 652.992 96.066C652.992 101.766 652.992 107.366 652.992 113.266C658.892 113.266 664.492 113.266 670.292 113.266C670.292 115.366 670.292 117.166 670.292 119.266C665.692 119.266 661.092 119.266 656.592 119.266C653.092 119.266 653.092 119.266 653.092 122.766C653.092 133.966 653.092 145.066 653.092 156.266C653.092 157.266 653.092 158.266 653.092 159.266C653.492 169.066 659.992 170.066 666.392 168.966C667.592 168.766 668.792 168.266 670.292 167.866C670.392 169.566 670.592 171.166 670.492 172.666C670.492 173.166 669.792 173.966 669.292 174.166C665.192 175.466 660.992 176.066 656.692 174.966C649.792 173.266 646.092 168.066 646.092 159.766C645.992 147.366 646.092 134.966 646.092 122.566C646.092 121.566 646.092 120.666 646.092 119.366C641.692 119.366 637.692 119.366 633.492 119.366C633.492 117.266 633.492 115.466 633.492 113.466C637.592 113.366 641.592 113.366 645.892 113.366Z" fill="black"/>
<path d="M287.992 113.266C287.992 114.566 287.992 115.466 287.992 116.366C287.992 134.666 287.992 152.966 288.092 171.266C288.092 173.566 287.592 174.466 285.092 174.366C280.192 174.166 280.892 174.866 280.892 170.066C280.892 152.466 280.892 134.766 280.892 117.166C280.892 112.666 280.492 113.266 284.992 113.266C285.792 113.266 286.692 113.266 287.992 113.266Z" fill="black"/>
<path d="M289.592 89.166C289.592 92.066 287.192 94.466 284.392 94.466C281.592 94.466 278.992 91.866 279.092 88.966C279.192 86.166 281.592 83.666 284.392 83.666C287.292 83.666 289.592 86.166 289.592 89.166Z" fill="black"/>
<path d="M712.992 111.866C720.292 111.866 727.192 111.866 734.492 111.866C734.492 112.866 734.492 113.766 734.492 114.666C734.492 125.466 734.492 136.366 734.492 147.166C734.492 149.266 734.792 151.366 735.192 153.366C735.992 157.066 737.892 159.866 741.892 160.566C745.992 161.366 749.692 160.466 752.492 157.066C755.092 153.766 755.792 149.866 755.792 145.766C755.792 135.566 755.792 125.266 755.792 115.066C755.792 114.066 755.792 113.066 755.792 111.966C762.992 111.966 769.792 111.966 776.992 111.966C776.992 133.466 776.992 154.966 776.992 176.666C770.292 176.666 763.592 176.666 756.692 176.666C756.692 173.866 756.692 171.266 756.692 168.166C756.092 168.666 755.792 168.866 755.592 169.066C750.692 176.566 740.092 180.466 729.492 177.666C720.592 175.366 714.192 167.266 713.592 157.166C713.092 148.366 713.192 139.566 713.092 130.666C712.892 124.466 712.992 118.266 712.992 111.866Z" fill="black"/>
<path d="M851.792 176.566C845.292 176.566 838.992 176.566 832.392 176.566C832.392 174.366 832.392 172.366 832.392 170.266C828.892 174.166 824.692 176.466 819.892 177.466C812.692 178.966 805.792 178.166 799.292 174.666C787.692 168.566 786.092 149.966 798.092 142.566C804.192 138.866 810.792 137.266 817.692 136.566C821.592 136.166 825.492 135.966 829.392 135.966C831.392 135.966 831.792 135.166 831.492 133.366C830.792 128.966 827.692 126.266 822.392 125.566C816.492 124.866 811.192 126.666 806.392 129.966C805.592 130.566 804.792 131.166 803.692 131.966C800.192 128.266 796.692 124.466 793.092 120.666C793.492 120.166 793.792 119.666 794.292 119.266C806.992 109.166 821.192 107.066 836.392 111.766C844.492 114.266 848.492 120.866 850.292 128.766C851.192 133.066 851.692 137.466 851.792 141.866C851.992 152.566 851.892 163.366 851.892 174.066C851.992 174.966 851.892 175.666 851.792 176.566ZM832.292 147.766C826.592 148.566 821.292 149.166 815.992 150.066C814.592 150.266 813.192 151.266 812.092 152.166C808.192 155.266 808.992 161.166 813.592 162.866C818.492 164.666 823.492 164.466 827.792 161.166C831.892 158.066 832.592 153.566 832.292 147.766Z" fill="black"/>
<path d="M469.281 229H472.125V208.219H469.281V229ZM515.109 208.219H510.625L503.953 225.828L497.227 208.219H492.688V229H495.422V211.227L502.258 229H505.539L512.375 211.227V229H515.109V208.219ZM544.258 208.219H535.672V229H538.516V220.797H544.258C548.633 220.797 551.422 218.336 551.422 214.508C551.422 210.68 548.633 208.219 544.258 208.219ZM543.93 218.227H538.516V210.789H543.93C546.992 210.789 548.523 212.047 548.523 214.508C548.523 216.969 546.992 218.227 543.93 218.227ZM582.758 229H585.766L577.234 208.219H573.844L565.312 229H568.266L570.344 223.805H580.68L582.758 229ZM571.328 221.289L575.484 210.898L579.641 221.289H571.328ZM611.031 229.273C615.242 229.273 618.414 226.922 619.617 223.148L616.992 222.219C616.117 225.172 614.039 226.758 611.031 226.758C606.875 226.758 604.195 223.641 604.195 218.609C604.195 213.688 606.984 210.461 611.031 210.461C614.039 210.461 616.117 212.047 616.992 215L619.617 214.07C618.359 210.133 615.242 207.945 611.031 207.945C605.289 207.945 601.297 212.32 601.297 218.609C601.297 225.062 605.125 229.273 611.031 229.273ZM652.922 208.219H634.875V210.844H642.477V229H645.32V210.844H652.922V208.219ZM678.953 229.273C684.094 229.273 687.43 225.992 687.43 220.906V208.219H684.586V220.906C684.586 224.461 682.398 226.758 678.953 226.758C675.508 226.758 673.32 224.461 673.32 220.906V208.219H670.477V220.906C670.477 225.992 673.812 229.273 678.953 229.273ZM721.227 229H724.234L715.703 208.219H712.312L703.781 229H706.734L708.812 223.805H719.148L721.227 229ZM709.797 221.289L713.953 210.898L718.109 221.289H709.797ZM740.859 229H744.688V225.172H740.859V229ZM771.266 229.273C777.062 229.273 781.109 224.898 781.109 218.609C781.109 212.156 777.227 207.945 771.266 207.945C765.469 207.945 761.422 212.32 761.422 218.609C761.422 225.062 765.305 229.273 771.266 229.273ZM771.266 226.758C767.055 226.758 764.32 223.531 764.32 218.609C764.32 213.688 767.055 210.461 771.266 210.461C775.477 210.461 778.211 213.688 778.211 218.609C778.211 223.531 775.477 226.758 771.266 226.758ZM813.375 229H816.656L811.242 220.25C813.867 219.375 815.453 217.297 815.453 214.453C815.453 210.68 812.664 208.219 808.344 208.219H800.031V229H802.82V220.688H808.289L813.375 229ZM802.82 210.789H807.961C811.023 210.789 812.555 212.047 812.555 214.508C812.555 216.969 811.023 218.227 807.961 218.227H802.82V210.789ZM843.562 218.609V220.961H849.359C848.758 224.953 845.641 226.758 842.633 226.758C838.477 226.758 835.797 223.641 835.797 218.609C835.797 213.688 838.695 210.461 842.961 210.461C845.914 210.461 848.047 211.883 848.977 214.562L851.602 213.578C850.234 209.914 847.117 207.945 842.961 207.945C837 207.945 832.898 212.32 832.898 218.609C832.898 225.062 836.727 229.273 842.578 229.273C845.477 229.273 847.828 228.016 849.414 225.883L849.688 229H851.82V218.609H843.562Z" fill="black"/>
</svg>
